<?xml version="1.0" standalone="no"?>
<!DOCTYPE svg PUBLIC "-//W3C//DTD SVG 20010904//EN"
 "http://www.w3.org/TR/2001/REC-SVG-20010904/DTD/svg10.dtd">
<svg version="1.0" xmlns="http://www.w3.org/2000/svg"
 width="560px" height="454px" viewBox="0 0 2320.000000 1305.000000"
 preserveAspectRatio="xMidYMid meet">

<g transform="translate(0.000000,1305.000000) scale(0.100000,-0.100000)"
fill="#000000" stroke="none">
<path d="M14145 11250 c3 -5 11 -10 16 -10 6 0 7 5 4 10 -3 6 -11 10 -16 10
-6 0 -7 -4 -4 -10z"/>
<path d="M14433 11060 c-19 -29 -17 -32 20 -28 24 2 32 8 32 23 0 27 -37 31
-52 5z"/>
<path d="M14800 10845 c0 -34 -1 -35 -40 -35 l-40 0 0 -80 0 -80 -160 0 -160
0 0 -80 0 -80 -80 0 -80 0 0 -80 0 -80 -80 0 -80 0 0 -80 0 -80 -160 0 -160 0
0 -80 0 -80 -80 0 -80 0 0 -80 0 -80 -80 0 -80 0 0 -80 0 -80 70 0 70 0 0 -37
0 -38 -50 -1 c-41 0 -50 3 -50 17 0 14 -26 28 -52 29 -21 0 -4 -21 32 -41 21
-12 37 -25 35 -29 -2 -4 8 -13 23 -20 15 -8 42 -25 60 -38 17 -13 36 -20 42
-17 5 3 14 -4 20 -15 7 -14 17 -19 29 -15 25 8 69 -9 52 -20 -8 -4 -17 -2 -22
6 -4 7 -11 11 -14 7 -3 -3 13 -19 37 -36 24 -17 49 -37 57 -44 8 -6 30 -20 50
-30 19 -10 31 -18 26 -18 -5 0 1 -7 13 -16 13 -9 31 -13 40 -9 13 5 14 3 5 -6
-9 -9 -1 -20 35 -48 26 -20 59 -42 74 -50 15 -8 24 -19 21 -24 -4 -6 1 -8 11
-4 13 5 17 3 13 -7 -3 -8 3 -22 14 -32 10 -9 19 -12 19 -6 0 6 -6 12 -12 15
-7 3 -4 5 8 4 15 -1 20 -6 16 -20 -3 -12 2 -20 15 -23 10 -3 23 -15 29 -27 5
-12 17 -21 26 -21 10 1 14 -4 11 -11 -2 -7 4 -16 15 -19 11 -4 22 -16 25 -27
3 -12 10 -18 15 -15 10 6 27 -9 34 -29 1 -5 9 -9 16 -9 7 1 11 0 8 -3 -10 -11
16 -45 30 -39 13 5 19 -5 15 -26 0 -5 3 -8 9 -8 5 0 10 -5 10 -10 0 -15 61
-80 70 -75 4 3 7 -3 6 -13 0 -11 6 -16 17 -16 9 1 16 -4 15 -10 -4 -18 53 -87
65 -79 6 3 7 1 3 -6 -5 -7 1 -20 14 -31 12 -10 21 -21 21 -24 -1 -11 102 -146
111 -146 5 0 7 -4 4 -9 -3 -5 1 -14 9 -21 8 -7 15 -18 15 -25 0 -7 7 -15 15
-19 8 -3 15 -10 15 -16 0 -6 19 -37 41 -71 24 -34 38 -64 33 -69 -7 -7 -1473
-857 -1535 -891 -16 -8 -22 -4 -40 26 -15 24 -27 34 -37 30 -12 -4 -12 -2 -4
8 9 11 5 20 -18 43 -16 16 -30 34 -30 40 0 23 -122 149 -143 148 -18 -1 -18 0
-4 11 15 11 13 15 -19 41 -19 16 -43 37 -52 47 -55 57 -88 87 -99 87 -7 0 -19
11 -28 23 -8 13 -27 30 -43 38 -15 8 -33 20 -40 27 -8 7 -18 10 -23 6 -5 -3
-8 0 -7 8 2 7 -3 12 -9 11 -7 -2 -13 1 -13 6 0 12 -75 55 -121 70 -20 6 -44
19 -55 29 -29 26 -69 41 -95 36 -22 -4 -22 -4 -4 5 15 7 16 10 5 12 -31 4 -36
6 -70 21 -30 13 -37 13 -51 2 -18 -16 -39 -18 -39 -4 0 6 6 10 14 10 8 0 18 5
22 11 5 8 -1 10 -20 7 -14 -3 -26 -2 -26 1 0 9 -72 28 -132 36 -27 3 -48 10
-48 14 0 4 -6 8 -12 8 -7 1 -39 5 -70 10 -35 6 -62 6 -70 0 -9 -6 -8 -7 5 -3
9 3 17 1 17 -4 0 -13 -27 -13 -35 0 -9 15 -35 12 -35 -4 0 -11 -22 -16 -90
-22 l-90 -7 0 -38 0 -39 -80 0 c-47 0 -80 -4 -80 -10 0 -6 -40 -10 -100 -10
-60 0 -100 -4 -100 -10 0 -6 -27 -10 -60 -10 l-60 0 0 -50 c0 -43 -3 -50 -20
-50 -13 0 -20 -7 -20 -20 0 -18 -7 -20 -60 -20 -33 0 -60 -4 -60 -10 0 -6 -27
-10 -60 -10 -33 0 -60 4 -60 10 0 6 -9 10 -20 10 -13 0 -20 7 -20 20 0 11 -4
20 -10 20 -5 0 -10 6 -10 14 0 18 -17 29 -30 21 -8 -5 -7 -11 1 -21 17 -21 4
-28 -15 -9 -9 9 -16 12 -16 5 0 -6 -5 -8 -12 -4 -7 4 -8 3 -4 -5 4 -6 12 -9
17 -6 5 4 9 -3 9 -14 0 -17 6 -21 35 -21 l35 0 0 -80 0 -80 -80 0 -80 0 0 -80
0 -80 -80 0 -80 0 0 -80 0 -80 -80 0 -80 0 0 -80 0 -80 -80 0 -80 0 0 -80 c0
-73 -2 -80 -20 -80 -13 0 -20 7 -20 20 0 14 -7 20 -21 20 -19 0 -21 4 -15 30
6 35 -4 39 -22 10 -7 -12 -17 -18 -22 -15 -6 3 -10 1 -10 -4 0 -6 6 -11 13
-11 6 0 1 -11 -13 -23 -17 -15 -26 -35 -28 -62 -1 -22 -8 -52 -14 -68 -9 -23
-12 -25 -22 -12 -9 12 -12 6 -14 -30 -2 -31 1 -45 10 -45 8 -1 7 -6 -5 -14
-10 -8 -16 -20 -15 -27 2 -8 -2 -13 -9 -12 -13 3 -37 -70 -30 -90 2 -7 0 -20
-5 -30 -5 -10 -10 -31 -10 -47 -1 -16 -5 -27 -10 -24 -10 7 -10 1 2 -31 7 -18
7 -24 0 -20 -7 4 -9 -2 -5 -18 4 -14 2 -27 -3 -31 -5 -3 -10 -40 -11 -83 -1
-43 -4 -94 -8 -113 -3 -19 -2 -31 3 -27 4 4 11 29 14 55 5 34 9 42 14 29 10
-21 -2 -109 -13 -103 -4 3 -8 -23 -8 -57 0 -43 2 -56 8 -42 6 14 7 6 5 -26 -3
-31 3 -61 15 -89 20 -45 25 -64 9 -40 -8 12 -10 10 -10 -9 0 -16 4 -21 15 -18
11 5 12 1 5 -17 -4 -12 -4 -29 0 -36 5 -8 7 -17 4 -21 -2 -4 0 -10 6 -14 5 -3
10 -17 10 -30 0 -32 10 -56 21 -49 6 3 8 -6 5 -20 -3 -14 0 -26 5 -26 5 0 9
-9 9 -20 0 -25 32 -100 42 -100 5 0 8 -9 8 -20 0 -11 4 -20 8 -20 4 0 8 -10 9
-22 1 -12 9 -26 18 -30 8 -5 13 -13 10 -18 -3 -5 10 -37 28 -72 104 -203 331
-443 575 -607 201 -135 493 -245 752 -282 109 -16 372 -16 475 -1 509 76 930
351 1253 821 l48 69 295 -170 c162 -94 449 -261 639 -370 190 -110 407 -236
482 -280 l137 -79 -22 -37 c-135 -235 -333 -495 -542 -711 -1066 -1100 -2758
-1362 -4184 -646 -588 295 -1056 723 -1416 1295 -43 69 -82 127 -86 130 -4 3
-15 24 -24 47 -9 24 -21 40 -26 37 -5 -3 -9 6 -9 19 0 13 -8 35 -19 48 -10 13
-22 35 -26 48 -5 17 -10 20 -18 12 -6 -6 -15 -11 -20 -11 -5 0 -1 7 7 16 20
19 20 38 1 54 -8 7 -15 21 -15 32 0 10 -4 17 -9 14 -5 -4 -7 4 -3 16 3 14 1
19 -6 14 -8 -4 -10 -2 -6 7 3 9 -5 22 -18 32 -14 11 -19 19 -11 22 7 2 9 11 6
19 -5 13 -7 13 -15 2 -7 -10 -8 -8 -7 7 3 24 -6 57 -38 154 -35 103 -59 141
-90 141 -22 0 -25 4 -21 28 3 15 2 41 -2 57 -7 25 -8 22 -9 -21 -2 -73 -11
-114 -27 -114 -11 0 -14 19 -14 80 l0 80 -160 0 -160 0 0 -80 0 -80 -80 0 -80
0 0 -80 0 -80 -80 0 -80 0 0 -80 0 -80 -80 0 -80 0 0 -80 0 -80 -160 0 -160 0
0 -80 0 -80 -80 0 -80 0 0 -80 0 -80 -80 0 -80 0 0 -80 0 -80 -160 0 -160 0 0
-80 c0 -64 -3 -80 -15 -80 -12 0 -15 -32 -17 -202 -2 -156 -6 -202 -15 -200
-16 3 -16 -8 -3 -84 17 -96 52 -204 63 -197 6 4 8 0 4 -10 -3 -10 -2 -17 3
-17 5 0 7 -7 4 -15 -4 -8 -1 -15 7 -15 7 0 10 -3 6 -6 -13 -13 23 -64 46 -65
18 0 19 -2 4 -7 -15 -6 -13 -13 20 -62 60 -92 139 -175 225 -240 74 -55 4361
-2539 4558 -2641 134 -69 206 -83 430 -83 226 0 293 13 436 86 46 24 1080 619
2299 1323 1656 957 2234 1295 2287 1340 157 131 279 321 330 515 l23 85 0
2695 c0 2613 -1 2697 -19 2765 -42 157 -109 280 -222 416 -119 141 -131 149
-804 537 -129 74 -293 169 -365 210 -71 41 -215 125 -320 185 -134 77 -200
110 -223 110 -23 0 -31 5 -30 16 3 17 -139 108 -184 118 -15 3 -26 9 -23 13 6
9 -45 34 -64 31 -7 -1 -10 2 -7 7 5 8 -14 22 -30 22 -2 0 -4 -16 -4 -35z m75
-25 c3 -5 -1 -10 -9 -10 -9 0 -16 5 -16 10 0 6 4 10 9 10 6 0 13 -4 16 -10z
m-1280 -1230 c3 -5 1 -10 -4 -10 -6 0 -11 5 -11 10 0 6 2 10 4 10 3 0 8 -4 11
-10z m0 -30 c3 -5 2 -10 -4 -10 -5 0 -13 5 -16 10 -3 6 -2 10 4 10 5 0 13 -4
16 -10z m-1625 -1350 c0 -5 -7 -7 -15 -4 -8 4 -15 8 -15 10 0 2 7 4 15 4 8 0
15 -4 15 -10z m895 -390 c3 -6 -1 -7 -9 -4 -18 7 -21 14 -7 14 6 0 13 -4 16
-10z m1479 -382 c-4 -30 -44 -415 -44 -424 0 -2 76 -4 168 -4 l168 0 24 230
24 230 148 0 c134 0 148 -2 147 -17 0 -10 -10 -114 -23 -230 l-22 -213 133 0
133 0 0 -145 0 -145 -150 0 c-140 0 -150 -1 -150 -19 0 -24 -29 -306 -36 -353
l-6 -38 131 0 131 0 0 -140 0 -140 -145 0 c-109 0 -145 -3 -145 -12 0 -7 -11
-120 -25 -252 -14 -131 -25 -240 -25 -242 0 -2 -67 -4 -150 -4 -124 0 -150 3
-150 14 0 8 11 120 25 248 14 128 25 236 25 241 0 4 -74 7 -164 7 l-164 0 -6
-27 c-3 -16 -15 -130 -27 -255 l-23 -228 -151 0 -151 0 17 168 c10 92 22 204
26 250 5 45 7 85 4 87 -2 3 -60 5 -128 5 l-123 0 0 140 0 140 139 0 c77 0 142
4 145 8 3 6 46 372 46 398 0 2 -56 4 -125 4 l-125 0 0 145 0 145 140 0 139 0
5 33 c3 17 12 100 21 182 8 83 18 171 21 198 l6 47 148 0 149 0 -5 -32z
m-3409 -1428 c-3 -5 -12 -10 -18 -10 -7 0 -6 4 3 10 19 12 23 12 15 0z m-2648
-682 c-3 -8 -6 -5 -6 6 -1 11 2 17 5 13 3 -3 4 -12 1 -19z m173 -752 c0 -2 -7
-7 -16 -10 -8 -3 -12 -2 -9 4 6 10 25 14 25 6z m-420 -240 c0 -2 -7 -7 -16
-10 -8 -3 -12 -2 -9 4 6 10 25 14 25 6z m-1670 -546 c0 -22 -2 -40 -4 -40 -2
0 -6 18 -8 40 -2 22 0 40 4 40 5 0 8 -18 8 -40z m665 -40 c-3 -5 -12 -10 -18
-10 -7 0 -6 4 3 10 19 12 23 12 15 0z m-638 -55 c8 -22 -6 -33 -17 -15 -13 20
-12 30 0 30 6 0 13 -7 17 -15z m216 -169 c4 -10 1 -13 -8 -9 -8 3 -12 9 -9 14
7 12 11 11 17 -5z"/>
<path d="M14270 6718 c0 -2 -9 -86 -20 -188 -11 -102 -20 -193 -20 -202 0 -16
14 -18 164 -18 l165 0 6 43 c11 78 35 312 35 340 l0 27 -165 0 c-91 0 -165 -1
-165 -2z"/>
<path d="M11573 10053 c9 -2 25 -2 35 0 9 3 1 5 -18 5 -19 0 -27 -2 -17 -5z"/>
<path d="M11908 10053 c12 -2 32 -2 45 0 12 2 2 4 -23 4 -25 0 -35 -2 -22 -4z"/>
<path d="M12565 9960 c3 -5 10 -10 16 -10 5 0 9 5 9 10 0 6 -7 10 -16 10 -8 0
-12 -4 -9 -10z"/>
<path d="M10918 9953 c7 -3 16 -2 19 1 4 3 -2 6 -13 5 -11 0 -14 -3 -6 -6z"/>
<path d="M12730 9920 c0 -5 5 -10 10 -10 6 0 10 5 10 10 0 6 -4 10 -10 10 -5
0 -10 -4 -10 -10z"/>
<path d="M12888 9909 c-4 -9 1 -20 13 -27 12 -8 19 -8 19 -2 0 5 -4 10 -9 10
-5 0 -11 8 -13 18 -3 15 -4 15 -10 1z"/>
<path d="M13085 9880 c-8 -14 3 -30 21 -30 18 0 18 8 0 26 -9 9 -17 10 -21 4z"/>
<path d="M12955 9861 c6 -11 4 -13 -9 -8 -9 4 -15 3 -12 -2 3 -5 17 -8 31 -8
14 0 25 0 23 1 -2 1 -12 8 -22 16 -17 13 -18 13 -11 1z"/>
<path d="M13020 9859 c0 -5 5 -7 10 -4 6 3 10 8 10 11 0 2 -4 4 -10 4 -5 0
-10 -5 -10 -11z"/>
<path d="M13069 9803 c-8 -9 -9 -14 -2 -10 6 4 13 1 16 -5 3 -7 4 -3 4 10 -1
26 -1 26 -18 5z"/>
<path d="M13110 9810 c0 -5 5 -10 10 -10 6 0 10 5 10 10 0 6 -4 10 -10 10 -5
0 -10 -4 -10 -10z"/>
<path d="M13210 9780 c0 -5 -8 -7 -17 -4 -10 3 -5 -2 10 -11 31 -18 43 -15 34
10 -7 16 -27 21 -27 5z"/>
<path d="M13136 9769 c3 -5 12 -9 21 -9 19 0 9 13 -12 16 -8 1 -13 -2 -9 -7z"/>
<path d="M13234 9721 c8 -7 19 -10 25 -7 18 12 12 21 -14 21 -20 0 -22 -2 -11
-14z"/>
<path d="M13360 9696 c0 -9 -6 -13 -14 -10 -8 3 -16 2 -19 -3 -3 -5 13 -9 34
-10 33 -1 40 1 37 15 -4 22 -38 29 -38 8z"/>
<path d="M11488 8217 c-9 -7 -30 -12 -47 -11 -22 1 -31 -2 -31 -13 0 -9 6 -13
15 -9 8 3 15 1 15 -4 0 -6 5 -10 11 -10 5 0 8 4 5 9 -8 12 20 22 41 14 10 -4
14 -2 9 5 -4 7 5 9 31 6 29 -3 33 -2 18 5 -18 9 -17 10 8 10 16 1 26 -3 22 -9
-9 -15 61 -16 77 -2 4 4 -3 8 -15 9 -12 0 -49 4 -82 7 -43 5 -65 3 -77 -7z"/>
<path d="M11284 8179 c-19 -22 -19 -22 3 -10 24 12 39 31 25 31 -5 0 -17 -10
-28 -21z"/>
<path d="M11330 8145 c0 -8 7 -15 15 -15 8 0 15 7 15 15 0 8 -7 15 -15 15 -8
0 -15 -7 -15 -15z"/>
<path d="M11080 8121 c-20 -6 -22 -8 -8 -13 9 -4 24 0 35 7 19 15 12 17 -27 6z"/>
<path d="M11166 8100 c7 -7 19 -7 35 -1 23 9 22 10 -10 10 -24 1 -32 -2 -25
-9z"/>
<path d="M11037 8079 c4 -12 14 -24 25 -26 10 -3 18 -14 18 -24 0 -11 5 -19
10 -19 6 0 10 16 10 35 0 31 -3 35 -26 35 -14 0 -23 4 -19 10 3 6 0 10 -8 10
-11 0 -13 -7 -10 -21z"/>
<path d="M10948 8063 c7 -3 16 -2 19 1 4 3 -2 6 -13 5 -11 0 -14 -3 -6 -6z"/>
<path d="M10982 8048 c-16 -16 -15 -38 2 -38 7 0 16 11 18 25 6 27 -1 32 -20
13z"/>
<path d="M10902 8038 c5 -15 28 -23 28 -10 0 5 -7 13 -16 16 -10 4 -14 1 -12
-6z"/>
<path d="M10746 7941 c-3 -5 1 -11 9 -15 8 -3 15 -1 15 4 0 13 -18 22 -24 11z"/>
<path d="M10696 7914 c-10 -25 -7 -64 5 -64 14 0 39 25 39 39 0 6 -8 11 -17
11 -14 0 -15 2 -5 9 11 7 11 9 -1 14 -9 3 -18 -1 -21 -9z"/>
<path d="M10608 7849 c-10 -10 -14 -19 -10 -19 5 0 17 9 27 20 10 11 14 20 9
19 -5 0 -17 -9 -26 -20z"/>
<path d="M10680 7825 c0 -9 9 -15 21 -15 18 0 19 2 9 15 -7 8 -16 15 -21 15
-5 0 -9 -7 -9 -15z"/>
<path d="M10563 7807 c-4 -7 -8 -15 -8 -19 0 -12 -15 -21 -15 -9 0 7 -12 -1
-26 -18 -14 -17 -33 -31 -42 -31 -14 0 -14 -2 -3 -9 7 -5 10 -14 6 -20 -5 -9
-10 -9 -20 -1 -9 8 -14 7 -18 -3 -3 -9 4 -12 22 -11 14 0 43 2 64 2 35 2 37 3
37 37 0 25 5 38 18 42 36 14 42 30 17 41 -18 9 -26 8 -32 -1z m-33 -61 c0 -2
-7 -7 -16 -10 -8 -3 -12 -2 -9 4 6 10 25 14 25 6z"/>
<path d="M10386 7621 c-18 -7 -18 -8 -2 -14 19 -8 36 -1 36 14 0 10 -7 11 -34
0z"/>
<path d="M10340 7565 c-7 -8 -16 -13 -20 -10 -4 3 -11 -2 -14 -10 -5 -13 -2
-13 24 0 17 9 30 20 30 25 0 14 -6 12 -20 -5z"/>
<path d="M10258 7466 c-10 -7 -15 -16 -11 -19 11 -12 21 -7 26 13 3 11 4 20 4
20 -1 0 -10 -7 -19 -14z"/>
<path d="M10313 7395 c0 -33 2 -45 4 -27 2 18 2 45 0 60 -2 15 -4 0 -4 -33z"/>
<path d="M10225 7410 c3 -4 -2 -13 -11 -21 -19 -16 -41 -54 -25 -45 6 4 11 0
11 -8 0 -18 8 -20 29 -7 8 5 11 16 6 30 -5 15 -2 21 9 21 23 0 20 27 -4 33
-11 3 -18 2 -15 -3z"/>
<path d="M10136 7275 c-3 -8 -1 -15 4 -15 13 0 22 18 11 24 -5 3 -11 -1 -15
-9z"/>
<path d="M8156 7075 c-9 -26 -7 -32 5 -12 6 10 9 21 6 23 -2 3 -7 -2 -11 -11z"/>
<path d="M10051 7074 c0 -11 3 -14 6 -6 3 7 2 16 -1 19 -3 4 -6 -2 -5 -13z"/>
<path d="M8131 6944 c0 -11 3 -14 6 -6 3 7 2 16 -1 19 -3 4 -6 -2 -5 -13z"/>
<path d="M8112 6680 c0 -14 2 -19 5 -12 2 6 2 18 0 25 -3 6 -5 1 -5 -13z"/>
<path d="M8113 6335 c0 -27 2 -38 4 -22 2 15 2 37 0 50 -2 12 -4 0 -4 -28z"/>
<path d="M8084 6136 c-3 -8 -4 -23 -1 -33 4 -14 5 -12 6 6 1 19 5 23 26 19 17
-4 25 -1 25 8 0 19 -49 18 -56 0z"/>
<path d="M8161 5924 c0 -11 3 -14 6 -6 3 7 2 16 -1 19 -3 4 -6 -2 -5 -13z"/>
<path d="M8150 5859 c-11 -26 -11 -32 1 -40 10 -6 10 -9 2 -9 -7 0 -13 -5 -13
-11 0 -5 5 -7 10 -4 6 3 13 -1 16 -9 3 -9 10 -16 14 -16 4 0 1 18 -6 41 -8 23
-12 50 -9 60 10 31 -1 22 -15 -12z"/>
<path d="M8196 5685 c8 -37 14 -45 14 -19 0 10 -5 26 -10 34 -8 11 -9 7 -4
-15z"/>
<path d="M8230 5535 c-7 -9 -8 -15 -2 -15 5 0 12 7 16 15 3 8 4 15 2 15 -2 0
-9 -7 -16 -15z"/>
<path d="M8247 5503 c-3 -5 -7 -21 -9 -38 -3 -16 -3 -24 -1 -17 3 8 11 11 19
8 16 -6 19 10 3 19 -6 4 -8 13 -5 21 6 15 0 19 -7 7z"/>
<path d="M6341 3914 c0 -11 3 -14 6 -6 3 7 2 16 -1 19 -3 4 -6 -2 -5 -13z"/>
</g>
</svg>
